<?xml version="1.0" encoding="utf-8" standalone="no"?><!DOCTYPE svg PUBLIC "-//W3C//DTD SVG 20010904//EN" "http://www.w3.org/TR/2001/REC-SVG-20010904/DTD/svg10.dtd"><svg xmlns="http://www.w3.org/2000/svg" width="425" height="347" xmlns:xlink="http://www.w3.org/1999/xlink"><source><![CDATA[Title: Csharp Explorer
Usu치rio->Site: digita comando
Site-->Base de dados: Consulta
Base de dados-->>Site: response
Site-->> Usu치rio: exibe resultado
]]></source><desc>Csharp Explorer</desc><defs><marker viewBox="0 0 5 5" markerWidth="5" markerHeight="5" orient="auto" refX="5" refY="2.5" id="markerArrowBlock"><path d="M 0 0 L 5 2.5 L 0 5 z"></path></marker><marker viewBox="0 0 9.6 16" markerWidth="4" markerHeight="16" orient="auto" refX="9.6" refY="8" id="markerArrowOpen"><path d="M 9.6,8 1.92,16 0,13.7 5.76,8 0,2.286 1.92,0 9.6,8 z"></path></marker></defs><g class="title"><path d="M10,10C36.4,3.4 84.5,16.6 175.0,10.0C173.5,37.7 176.5,28.7 175.0,46.7C37.9,40.1 57.8,53.3 10.0,46.7C11.5,16.1 8.5,18.8 10.0,10.0" style="stroke-width: 2px;" stroke="#000000" fill="#ffffff"></path><text x="15" y="30.33333396911621" style="font-size: 16px; font-family: danielbd;"><tspan x="15">Csharp Explorer</tspan></text></g><g class="actor"><path d="M10,56.66666603088379C25.8,60.1 70.0,53.2 97.0,56.7C98.6,63.1 95.4,74.9 97.0,96.7C44.4,93.2 30.9,100.1 10.0,96.7C8.4,78.7 11.6,65.0 10.0,56.7" style="stroke-width: 2px;" stroke="#000000" fill="#ffffff"></path><text x="20" y="81.3333330154419" style="font-size: 16px; font-family: danielbd;"><tspan x="20">Usu치rio</tspan></text></g><g class="actor"><path d="M10,287.3333320617676C48.5,290.8 76.1,283.9 97.0,287.3C95.4,316.6 98.6,304.5 97.0,327.3C60.2,323.9 23.9,330.8 10.0,327.3C8.4,311.4 11.6,315.3 10.0,287.3" style="stroke-width: 2px;" stroke="#000000" fill="#ffffff"></path><text x="20" y="311.9999990463257" style="font-size: 16px; font-family: danielbd;"><tspan x="20">Usu치rio</tspan></text></g><path d="M53.5,96.7C45.9,147.0 61.1,127.2 53.5,287.3" style="stroke-width: 2px;" stroke="#000000" fill="none"></path><g class="actor"><path d="M176.44167137145996,56.66666603088379C188.8,58.7 187.5,54.6 227.9,56.7C226.3,68.1 229.5,70.2 227.9,96.7C214.1,94.6 210.1,98.7 176.4,96.7C178.0,72.6 174.8,72.4 176.4,56.7" style="stroke-width: 2px;" stroke="#000000" fill="#ffffff"></path><text x="187.10833805799484" y="81.99999904632568" style="font-size: 16px; font-family: danielbd;"><tspan x="186.44167137145996">Site</tspan></text></g><g class="actor"><path d="M176.44167137145996,287.3333320617676C189.3,289.4 213.1,285.3 227.9,287.3C226.3,313.7 229.5,298.8 227.9,327.3C194.0,325.3 188.9,329.4 176.4,327.3C174.8,315.1 178.0,300.7 176.4,287.3" style="stroke-width: 2px;" stroke="#000000" fill="#ffffff"></path><text x="187.10833805799484" y="312.6666650772095" style="font-size: 16px; font-family: danielbd;"><tspan x="186.44167137145996">Site</tspan></text></g><path d="M202.2,96.7C194.5,256.8 209.8,127.2 202.2,287.3" style="stroke-width: 2px;" stroke="#000000" fill="none"></path><g class="actor"><path d="M247.8916721343994,56.66666603088379C283.4,62.6 349.5,50.8 395.7,56.7C394.1,75.5 397.3,79.1 395.7,96.7C372.0,90.8 271.5,102.6 247.9,96.7C246.3,75.9 249.5,65.6 247.9,56.7" style="stroke-width: 2px;" stroke="#000000" fill="#ffffff"></path><text x="257.8916721343994" y="83.33333396911621" style="font-size: 16px; font-family: danielbd;"><tspan x="257.8916721343994">Base de dados</tspan></text></g><g class="actor"><path d="M247.8916721343994,287.3333320617676C283.4,281.4 360.2,293.2 395.7,287.3C397.3,320.9 394.1,304.2 395.7,327.3C362.1,333.2 360.2,321.4 247.9,327.3C246.3,316.4 249.5,320.9 247.9,287.3" style="stroke-width: 2px;" stroke="#000000" fill="#ffffff"></path><text x="257.8916721343994" y="314" style="font-size: 16px; font-family: danielbd;"><tspan x="257.8916721343994">Base de dados</tspan></text></g><path d="M321.8,96.7C314.1,142.4 329.4,127.2 321.8,287.3" style="stroke-width: 2px;" stroke="#000000" fill="none"></path><g class="signal"><text x="64.51667022705078" y="122.3333330154419" style="font-size: 16px; font-family: danielbd;"><tspan x="64.51667022705078">digita comando</tspan></text><path d="M53.5,146.0C178.4,140.1 106.2,151.9 202.2,146.0" style="stroke-width: 2px; marker-end: url(&quot;#markerArrowBlock&quot;);" stroke="#000000" fill="none"></path></g><g class="signal"><text x="223.87917232513428" y="177.00000095367432" style="font-size: 16px; font-family: danielbd;"><tspan x="223.87917232513428">Consulta</tspan></text><path d="M202.2,184.7C230.9,179.9 236.9,189.5 321.8,184.7" style="stroke-width: 2px; stroke-dasharray: 6px, 2px; marker-end: url(&quot;#markerArrowBlock&quot;);" stroke="#000000" fill="none"></path></g><g class="signal"><text x="225.62084102630615" y="210.3333330154419" style="font-size: 16px; font-family: danielbd;"><tspan x="225.62084102630615">response</tspan></text><path d="M321.8,228.7C288.6,223.9 293.1,233.5 202.2,228.7" style="stroke-width: 2px; stroke-dasharray: 6px, 2px; marker-end: url(&quot;#markerArrowOpen&quot;);" stroke="#000000" fill="none"></path></g><g class="signal"><text x="63.5" y="259.6666669845581" style="font-size: 16px; font-family: danielbd;"><tspan x="63.5">exibe resultado</tspan></text><path d="M202.2,267.3C178.4,273.3 166.5,261.4 53.5,267.3" style="stroke-width: 2px; stroke-dasharray: 6px, 2px; marker-end: url(&quot;#markerArrowOpen&quot;);" stroke="#000000" fill="none"></path></g></svg>